<svg class="diagram-root" style="background: #f5f6f6" xmlns="http://www.w3.org/2000/svg" xmlns:xlink="http://www.w3.org/1999/xlink"><style>.diagram-root { font-family: "Helvetica Neue", sans-serif; font-size: 12px; } .t { overflow: visible; } .t-bg { y: 40; fill: #fff;   } .th { fill: #005aa0;   } .tht { fill: #fff; font-size: 14px;  } .tf { fill: #323c46; overflow: visible; } .tf.pk { fill: #005aa0; font-weight: bold; } .tf.fk { font-weight: bold; } .ty { fill: #adb1b5; font-weight: normal; text-anchor: end; } .r { fill: transparent; stroke: #c3c3c3; stroke-width: 1; } .l { stroke: 1; } .i { fill: #c2c7ce; stroke: #c2c7ce; } .i.ix { fill: #afb3b6; stroke: #000; } .fa { fill: transparent; overflow: visible; } .fa .bg.hover { fill: #f7f7f7; } .c { cy: 12; r: 4; stroke: #d2d2dc; fill: #d2d2dc; } .hr { fill: transparent; stroke: #323c46; stroke-opacity: 0.035; stroke-width: 13; } .dc { stroke: #fa5a3c; fill: #fa5a3c; } .x { stroke: white; stroke-width: 1; } .hl .th { fill: #1b9bff; } .hl .tht {  } .fhl .bg { fill: #e7f4ff; } .fhls .bg {  } .r.hl { stroke: #1b9bff; } .dim { opacity: 0.25; }</style><g class="drawing-wrapper" transform="translate(-53, -25) scale(1,1)"><g class="rs"><path d="M 661.18 113 m -1, 0 a 1,1 0 1,0 2,0 a 1,1 0 1,0 -2,0 M 661.18 113 m -0.5, 0 a 0.5,0.5 0 1,0 1,0 a 0.5,0.5 0 1,0 -1,0  M661.18 113 L661.18 113 673.18 113 M667.18 119 L667.18 119 667.18 107 M673.18 113 C 723.18 113, 723.78 322, 672.18 322 M 660.18 322 m -1, 0 a 1,1 0 1,0 2,0 a 1,1 0 1,0 -2,0 M 660.18 322 m -0.5, 0 a 0.5,0.5 0 1,0 1,0 a 0.5,0.5 0 1,0 -1,0  M660.18 322 L660.18 322 672.18 322 M666.18 328 L666.18 328 666.18 316" id="h1397587031" class="r"></path><path d="M 486 138 m -1, 0 a 1,1 0 1,0 2,0 a 1,1 0 1,0 -2,0 M 486 138 m -0.5, 0 a 0.5,0.5 0 1,0 1,0 a 0.5,0.5 0 1,0 -1,0  M486 138 L486 138 474 138 M480 144 L480 144 480 132 M474 138 Q 426.38 138, 378.75 125 T 283.5 112 M 271.5 112 m -1, 0 a 1,1 0 1,0 2,0 a 1,1 0 1,0 -2,0 M 271.5 112 m -0.5, 0 a 0.5,0.5 0 1,0 1,0 a 0.5,0.5 0 1,0 -1,0  M271.5 112 L271.5 112 283.5 112 M 271.5 118 m -1, 0 a 1,1 0 1,0 2,0 a 1,1 0 1,0 -2,0 M 271.5 118 m -0.5, 0 a 0.5,0.5 0 1,0 1,0 a 0.5,0.5 0 1,0 -1,0  M271.5 118 L271.5 118 278.5 112 271.5 106 M 271.5 106 m -1, 0 a 1,1 0 1,0 2,0 a 1,1 0 1,0 -2,0 M 271.5 106 m -0.5, 0 a 0.5,0.5 0 1,0 1,0 a 0.5,0.5 0 1,0 -1,0 " id="h2286254435" class="r"></path><path d="M 491 529 m -1, 0 a 1,1 0 1,0 2,0 a 1,1 0 1,0 -2,0 M 491 529 m -0.5, 0 a 0.5,0.5 0 1,0 1,0 a 0.5,0.5 0 1,0 -1,0  M491 529 L491 529 479 529 M485 535 L485 535 485 523 M479 529 Q 430.13 529, 381.25 320.5 T 283.5 112 M 271.5 112 m -1, 0 a 1,1 0 1,0 2,0 a 1,1 0 1,0 -2,0 M 271.5 112 m -0.5, 0 a 0.5,0.5 0 1,0 1,0 a 0.5,0.5 0 1,0 -1,0  M271.5 112 L271.5 112 283.5 112 M 271.5 118 m -1, 0 a 1,1 0 1,0 2,0 a 1,1 0 1,0 -2,0 M 271.5 118 m -0.5, 0 a 0.5,0.5 0 1,0 1,0 a 0.5,0.5 0 1,0 -1,0  M271.5 118 L271.5 118 278.5 112 271.5 106 M 271.5 106 m -1, 0 a 1,1 0 1,0 2,0 a 1,1 0 1,0 -2,0 M 271.5 106 m -0.5, 0 a 0.5,0.5 0 1,0 1,0 a 0.5,0.5 0 1,0 -1,0 " id="h1139284389" class="r"></path><path d="M 666.18 554 m -1, 0 a 1,1 0 1,0 2,0 a 1,1 0 1,0 -2,0 M 666.18 554 m -0.5, 0 a 0.5,0.5 0 1,0 1,0 a 0.5,0.5 0 1,0 -1,0  M666.18 554 L666.18 554 678.18 554 M672.18 560 L672.18 560 672.18 548 M678.18 554 C 728.18 554, 731.78 322, 672.18 322 M 660.18 322 m -1, 0 a 1,1 0 1,0 2,0 a 1,1 0 1,0 -2,0 M 660.18 322 m -0.5, 0 a 0.5,0.5 0 1,0 1,0 a 0.5,0.5 0 1,0 -1,0  M660.18 322 L660.18 322 672.18 322 M666.18 328 L666.18 328 666.18 316" id="h1607168654" class="r"></path><path d="M 289.7 531 m -1, 0 a 1,1 0 1,0 2,0 a 1,1 0 1,0 -2,0 M 289.7 531 m -0.5, 0 a 0.5,0.5 0 1,0 1,0 a 0.5,0.5 0 1,0 -1,0  M289.7 531 L289.7 531 301.7 531 M 289.7 537 m -1, 0 a 1,1 0 1,0 2,0 a 1,1 0 1,0 -2,0 M 289.7 537 m -0.5, 0 a 0.5,0.5 0 1,0 1,0 a 0.5,0.5 0 1,0 -1,0  M289.7 537 L289.7 537 296.7 531 289.7 525 M 289.7 525 m -1, 0 a 1,1 0 1,0 2,0 a 1,1 0 1,0 -2,0 M 289.7 525 m -0.5, 0 a 0.5,0.5 0 1,0 1,0 a 0.5,0.5 0 1,0 -1,0  M301.7 531 C 351.7 531, 362.62 112, 283.5 112 M 271.5 112 m -1, 0 a 1,1 0 1,0 2,0 a 1,1 0 1,0 -2,0 M 271.5 112 m -0.5, 0 a 0.5,0.5 0 1,0 1,0 a 0.5,0.5 0 1,0 -1,0  M271.5 112 L271.5 112 283.5 112 M 271.5 118 m -1, 0 a 1,1 0 1,0 2,0 a 1,1 0 1,0 -2,0 M 271.5 118 m -0.5, 0 a 0.5,0.5 0 1,0 1,0 a 0.5,0.5 0 1,0 -1,0  M271.5 118 L271.5 118 278.5 112 271.5 106 M 271.5 106 m -1, 0 a 1,1 0 1,0 2,0 a 1,1 0 1,0 -2,0 M 271.5 106 m -0.5, 0 a 0.5,0.5 0 1,0 1,0 a 0.5,0.5 0 1,0 -1,0 " id="h3177548053" class="r"></path><path d="M 257.49 385 m -1, 0 a 1,1 0 1,0 2,0 a 1,1 0 1,0 -2,0 M 257.49 385 m -0.5, 0 a 0.5,0.5 0 1,0 1,0 a 0.5,0.5 0 1,0 -1,0  M257.49 385 L257.49 385 269.49 385 M263.49 391 L263.49 391 263.49 379 M269.49 385 C 341.906 385, 333.5 137, 283.5 137 M 271.5 137 m -1, 0 a 1,1 0 1,0 2,0 a 1,1 0 1,0 -2,0 M 271.5 137 m -0.5, 0 a 0.5,0.5 0 1,0 1,0 a 0.5,0.5 0 1,0 -1,0  M271.5 137 L271.5 137 283.5 137 M277.5 143 L277.5 143 277.5 131" id="h724011168" class="r"></path></g><g class="hrs"></g><g class="ts"><svg width="175.18" height="100" x="491" y="472" id="h1090417462" class="t"><rect height="40" width="175.18" class="th"></rect><text x="13" y="25" class="tht">dept_emp</text><rect height="60" width="175.18" class="t-bg"></rect><text x="13" y="61" class="tf fk">emp_no<tspan x="162.18" class="ty">INTEGER</tspan></text><text x="13" y="86" class="tf fk">dept_no<tspan x="162.18" class="ty">VARCHAR(255)</tspan></text></svg><svg width="142.7" height="100" x="147" y="474" id="h2472833127" class="t"><rect height="40" width="142.7" class="th"></rect><text x="13" y="25" class="tht">salaries</text><rect height="60" width="142.7" class="t-bg"></rect><text x="13" y="61" class="tf fk">emp_no<tspan x="129.7" class="ty">INTEGER</tspan></text><text x="13" y="86" class="tf">salary<tspan x="129.7" class="ty">DEC</tspan></text></svg><svg width="196.5" height="225" x="75" y="55" id="h1639608377" class="t"><rect height="40" width="196.5" class="th"></rect><text x="13" y="25" class="tht">employees</text><rect height="185" width="196.5" class="t-bg"></rect><text x="13" y="61" class="tf pk">emp_no<tspan x="183.5" class="ty">INTEGER</tspan></text><path d="M7,14A2,2 0 0,1 5,12A2,2 0 0,1 7,10A2,2 0 0,1 9,12A2,2 0 0,1 7,14M12.65,10C11.83,7.67 9.61,6 7, 6A6, 6 0 0, 0 1, 12A6, 6 0 0, 0 7, 18C9.61, 18 11.83, 16.33 12.65, 14H17V18H21V14H23V10H12.65Z" class="i pk" transform="translate(110.162109375, 48) scale(0.65)"></path><text x="13" y="86" class="tf fk">emp_title_id<tspan x="183.5" class="ty">VARCHAR(255)</tspan></text><text x="13" y="111" class="tf">birth_date<tspan x="183.5" class="ty">VARCHAR(255)</tspan></text><text x="13" y="136" class="tf">first_name<tspan x="183.5" class="ty">VARCHAR(255)</tspan></text><text x="13" y="161" class="tf">last_name<tspan x="183.5" class="ty">VARCHAR(255)</tspan></text><text x="13" y="186" class="tf">sex<tspan x="183.5" class="ty">CHAR(255)</tspan></text><text x="13" y="211" class="tf">hire_date<tspan x="183.5" class="ty">VARCHAR(255)</tspan></text></svg><svg width="175.18" height="100" x="486" y="56" id="h1676682957" class="t"><rect height="40" width="175.18" class="th"></rect><text x="13" y="25" class="tht">dept_manager</text><rect height="60" width="175.18" class="t-bg"></rect><text x="13" y="61" class="tf fk">dept_no<tspan x="162.18" class="ty">VARCHAR(255)</tspan></text><text x="13" y="86" class="tf fk">emp_no<tspan x="162.18" class="ty">INTEGER</tspan></text></svg><svg width="195.18" height="100" x="465" y="265" id="h475896179" class="t"><rect height="40" width="195.18" class="th"></rect><text x="13" y="25" class="tht">departments</text><rect height="60" width="195.18" class="t-bg"></rect><text x="13" y="61" class="tf pk">dept_no<tspan x="182.18" class="ty">VARCHAR(255)</tspan></text><path d="M7,14A2,2 0 0,1 5,12A2,2 0 0,1 7,10A2,2 0 0,1 9,12A2,2 0 0,1 7,14M12.65,10C11.83,7.67 9.61,6 7, 6A6, 6 0 0, 0 1, 12A6, 6 0 0, 0 7, 18C9.61, 18 11.83, 16.33 12.65, 14H17V18H21V14H23V10H12.65Z" class="i pk" transform="translate(76.381171875, 48) scale(0.65)"></path><text x="13" y="86" class="tf">dept_name<tspan x="182.18" class="ty">VARCHAR(255)</tspan></text></svg><svg width="166.49" height="100" x="91" y="328" id="h311790747" class="t"><rect height="40" width="166.49" class="th"></rect><text x="13" y="25" class="tht">titles</text><rect height="60" width="166.49" class="t-bg"></rect><text x="13" y="61" class="tf fk">title_id<tspan x="153.49" class="ty">VARCHAR(255)</tspan></text><text x="13" y="86" class="tf">title<tspan x="153.49" class="ty">VARCHAR(255)</tspan></text></svg></g></g><text class="qdbd-link" x="10" y="20">www.quickdatabasediagrams.com</text></svg>